<svg width="210px" height="32px" viewBox="0 0 210 32" fill="none" xmlns="http://www.w3.org/2000/svg" transform="rotate(0) scale(1, 1)">
<g clip-path="url(#clip0_19_120)">
<path d="M29.4751 12.3481C29.3972 11.9197 29.01 10.5474 29.01 10.5474C29.7902 9.37286 30.5822 8.20419 31.3116 6.99785C31.8333 6.13517 32.2323 5.20776 32.3775 4.1909C32.5297 3.11638 31.9844 2.56087 30.8997 2.71387C29.7949 2.8704 28.748 3.22112 27.7518 3.71308C27.2891 3.9414 26.8524 4.22268 26.3944 4.46277C26.2422 4.5428 26.2304 4.62872 26.2599 4.78289C26.8984 8.03942 27.5311 11.2959 28.1649 14.5525C28.5237 16.3979 28.8837 18.2421 29.2449 20.0863C29.2614 20.1711 29.2839 20.2535 29.2957 20.3052C29.8681 20.3052 30.424 20.33 30.9776 20.3005C32.3645 20.2264 33.7372 20.0475 35.0639 19.6167C35.5584 19.4555 36.0341 19.2495 36.4024 18.8553C36.655 18.5846 36.7128 18.2962 36.5688 17.9585C36.3493 17.4406 35.9928 17.0346 35.5549 16.6898C34.5198 15.8777 33.3701 15.2586 32.1969 14.6772C31.9903 14.5748 31.7861 14.4666 31.5819 14.3606L32.1225 12.9342C32.1225 12.9342 32.7446 13.2508 33.1919 13.4803C34.5398 14.1688 35.8523 14.9114 36.9536 15.9707C37.5024 16.4979 37.9415 17.0946 38.089 17.8643C38.2366 18.6317 38.0253 19.299 37.4859 19.8439C36.7978 20.5394 35.9161 20.9125 34.9954 21.1773C33.3489 21.6516 31.6575 21.8235 29.9496 21.8647C29.8457 21.867 29.7406 21.8647 29.5955 21.8647C29.6922 22.3696 29.7831 22.845 29.8752 23.3205C30.1384 24.6657 30.404 26.0121 30.6672 27.3573C30.8596 28.34 30.3426 29.0662 29.3511 29.258C25.6591 29.9689 21.9682 30.688 18.2774 31.4047C17.352 31.5848 16.4278 31.7672 15.5024 31.9438C14.6207 32.1121 13.8594 31.5989 13.6871 30.7186C12.8207 26.2863 11.9568 21.8529 11.0904 17.4194C11.0857 17.3935 11.0751 17.3677 11.0373 17.2429V17.25C10.3019 18.2068 9.59139 19.0883 8.92923 20.0039C7.93776 21.3739 6.98878 22.7732 6.31128 24.3315C6.03154 24.9752 5.78958 25.6308 5.75771 26.3452C5.71876 27.2208 6.17672 27.6386 7.05488 27.5598C8.22576 27.455 9.29513 27.0313 10.3456 26.5476C10.7989 26.3393 11.2438 26.1157 11.7301 25.8815C11.8045 26.397 11.8777 26.9019 11.9532 27.4268C10.6749 28.1341 9.35533 28.7178 7.89291 28.9167C7.32045 28.9944 6.748 29.0638 6.172 28.9309C4.97161 28.6531 4.3189 27.8434 4.28467 26.6147C4.2587 25.7026 4.48768 24.8481 4.82289 24.0137C5.5665 22.1659 6.60636 20.49 7.81855 18.9153C7.96963 18.7188 8.12307 18.5222 8.30012 18.2927C8.19861 18.2292 8.11953 18.1656 8.03101 18.1268C6.87075 17.6148 5.71522 17.0923 4.54316 16.6062C4.20677 16.4661 4.13359 16.4073 3.64139 16.4144C2.89189 16.2755 3.07248 16.2084 2.47052 15.587C2.34894 15.1268 2.39261 15.3033 1.50737 14.596C0.951443 14.0299 0.409676 13.465 0.142923 12.6953C-0.174583 11.7761 0.0331536 10.9735 0.759051 10.3509C1.15446 10.0119 1.61832 9.733 2.08809 9.5035C3.27077 8.92681 4.5585 8.72909 5.85095 8.57845C6.46236 8.50665 7.07849 8.48312 7.69107 8.42074C7.80674 8.40897 7.90825 8.40073 7.90825 8.40073L7.99205 8.71261L8.29658 9.86835L7.85396 9.92248C6.65121 10.0602 5.44138 10.1638 4.25044 10.3744C3.58946 10.4909 2.92612 10.7263 2.32534 11.0288C1.37872 11.5054 1.29256 12.0986 1.9559 12.9272C2.12822 13.1437 2.33832 13.3308 2.53425 13.5286C2.77622 13.7734 3.06304 13.8828 3.41713 13.871C4.21149 13.771 4.67653 14.0405 4.91496 14.4724C5.21594 14.9232 5.05424 15.1704 5.45555 15.3422C6.59456 15.8294 7.73593 16.312 8.87493 16.798C9.15821 16.9193 9.38837 16.8781 9.58903 16.6286C9.92542 16.2119 10.2807 15.8118 10.6135 15.3916C10.6643 15.3281 10.6525 15.1939 10.6348 15.0997C10.3043 13.3767 9.96909 11.6537 9.6327 9.9319C9.27978 8.12533 8.92333 6.31877 8.57395 4.51102C8.41343 3.68365 8.967 2.9316 9.8546 2.75977C11.6381 2.41376 13.4227 2.0701 15.2074 1.72291C18.0673 1.16741 20.9272 0.611901 23.7871 0.0540428C24.5933 -0.103664 25.3758 0.392995 25.5564 1.19918C25.6839 1.76763 25.7866 2.34079 25.9058 2.93631C26.359 2.728 26.7934 2.52674 27.2277 2.32784C28.506 1.74292 29.8292 1.33924 31.2479 1.28274C32.3338 1.2392 33.2202 1.67466 33.6239 2.53263C33.9567 3.23995 33.9426 3.98494 33.7762 4.72993C33.4504 6.18931 32.8366 7.5357 32.0246 8.77735M27.7058 20.7148C26.7296 15.7117 25.7618 10.7463 24.788 5.75032C24.6841 5.80799 24.6086 5.84329 24.5413 5.89037C23.2902 6.76835 22.0473 7.65574 20.7867 8.52078C20.3654 8.8103 20.2096 9.15278 20.2709 9.66474C20.35 10.3226 20.1317 10.917 19.6713 11.4054C18.9643 12.1551 18.1121 12.3881 17.1218 12.0904C16.8704 12.015 16.6485 11.9809 16.4337 12.1951C15.1672 13.4556 13.8937 14.7114 12.6201 15.9648C12.4844 16.0989 12.4478 16.2272 12.4855 16.4226C13.0828 19.452 13.6694 22.4825 14.2596 25.5131C14.374 26.1016 14.4921 26.6888 14.6101 27.282C19.2476 26.3828 23.8497 25.4907 28.4624 24.5975C28.3065 23.8019 28.159 23.0427 28.0103 22.2836C27.9312 22.2754 27.8746 22.266 27.8179 22.2625C26.7332 22.206 25.6473 22.1612 24.5626 22.0883C24.1471 22.06 23.8473 22.2236 23.5617 22.4955C22.5832 23.4264 21.1078 23.2122 20.4503 22.033C20.2568 21.6858 19.9959 21.5186 19.6147 21.4621C18.9773 21.3692 18.3399 21.2668 17.7096 21.1373C16.4597 20.8819 15.2133 20.6054 13.9562 20.3347C13.8795 19.7909 13.8028 19.2495 13.7237 18.6893C13.8712 18.7352 13.9704 18.7741 14.0719 18.7953C16.0005 19.1989 17.9315 19.5979 19.859 20.0063C20.2131 20.0816 20.481 20.0145 20.7254 19.7227C21.1644 19.1978 21.7522 19.0059 22.4309 19.0836C23.119 19.1625 23.6608 19.472 23.9665 20.1052C24.1388 20.4618 24.3843 20.6054 24.7798 20.6101C25.3758 20.6171 25.9695 20.6854 26.5656 20.7113C26.9374 20.7278 27.3115 20.7148 27.7046 20.7148H27.7058ZM12.0736 14.2912C12.1633 14.2065 12.2117 14.1617 12.2601 14.1158C13.2598 13.1449 14.2513 12.1669 15.2628 11.2089C15.5154 10.9699 15.598 10.7546 15.5095 10.4038C15.2758 9.47643 15.4788 8.63965 16.2177 7.9994C16.9873 7.33209 17.8749 7.16026 18.8215 7.57807C19.1614 7.72754 19.3975 7.67222 19.6879 7.46744C21.109 6.46588 22.5419 5.47727 23.9807 4.50043C24.4988 4.14853 24.5118 4.16854 24.356 3.56478C24.3513 3.54831 24.3336 3.53536 24.31 3.50358C19.7103 4.39569 15.1023 5.28897 10.492 6.18225C11.0219 8.9021 11.5436 11.5725 12.0736 14.2912ZM21.9552 29.484C22.4828 29.4875 22.9314 29.0321 22.9361 28.4883C22.9396 27.9305 22.4769 27.4621 21.9175 27.4597C21.3615 27.4562 20.8847 27.9199 20.8753 28.473C20.8658 29.0062 21.3733 29.4805 21.9552 29.484ZM5.00466 15.1056C5.00466 15.8283 4.41686 16.4144 3.69215 16.4144C2.96743 16.4144 2.37963 15.8283 2.37963 15.1056C2.37963 14.383 2.96743 13.7969 3.69215 13.7969C4.41686 13.7969 5.00466 14.383 5.00466 15.1056Z" fill="#ffffff"/>
<path d="M35.511 23.0427C35.5098 22.5484 35.8911 22.193 36.4293 22.1871C36.9286 22.1812 37.2838 22.5613 37.2862 23.1027C37.2886 23.5629 36.8731 23.9513 36.3797 23.9525C35.8816 23.9525 35.5133 23.5676 35.511 23.0427Z" fill="#ffffff"/>
<path d="M32.8978 23.6912C32.8919 23.3135 33.1787 23.0439 33.5883 23.0439C33.9648 23.0439 34.2339 23.3029 34.2363 23.6665C34.2386 24.0043 33.9436 24.2997 33.5918 24.3127C33.2318 24.3268 32.9025 24.0302 32.8978 23.6901V23.6912Z" fill="#ffffff"/>
<path d="M6.93331 4.86875C6.93803 5.20417 6.62761 5.50664 6.2806 5.50428C5.93594 5.50193 5.67037 5.24418 5.66919 4.90876C5.66919 4.54745 5.96663 4.23674 6.31719 4.23439C6.64295 4.23204 6.92859 4.52626 6.93331 4.86875Z" fill="#ffffff"/>
<path d="M22.1226 29.4547C21.5407 29.4512 21.0332 28.9757 21.0426 28.4438C21.0521 27.8906 21.5289 27.4281 22.0848 27.4304C22.6443 27.434 23.1082 27.9012 23.1035 28.4591C23.0999 29.0016 22.6502 29.4583 22.1226 29.4547Z" fill="#fbfbfb"/>
</g>
<path d="M204.582 12.6131V0.702065C204.582 0.250461 204.789 0.0246582 205.203 0.0246582H205.485C208.495 0.0246582 210 1.60527 210 4.76649V30.7901C210 31.2041 209.812 31.4111 209.436 31.4111H205.203C204.789 31.4111 204.582 31.2041 204.582 30.7901V28.7579C203.001 30.8654 200.8 31.9191 197.978 31.9191C195.118 31.9191 192.823 30.9407 191.092 28.9837C189.211 26.9139 188.27 24.1666 188.27 20.7419C188.27 17.7313 189.042 15.2286 190.584 13.234C192.428 10.8255 195.006 9.62122 198.317 9.62122C201.139 9.62122 203.227 10.6185 204.582 12.6131ZM199.22 26.8386C200.913 26.8386 202.23 26.3117 203.171 25.258C204.111 24.1666 204.582 22.6613 204.582 20.7419C204.582 18.8603 204.111 17.4114 203.171 16.3953C202.268 15.3415 200.97 14.8147 199.276 14.8147C197.583 14.8147 196.247 15.3415 195.269 16.3953C194.291 17.449 193.801 18.8979 193.801 20.7419C193.801 22.586 194.291 24.0725 195.269 25.2015C196.247 26.2929 197.564 26.8386 199.22 26.8386Z" fill="#ffffff"/>
<path d="M178.456 28.758C176.875 30.8655 174.674 31.9192 171.852 31.9192C168.992 31.9192 166.697 30.9596 164.966 29.0403C163.085 26.9704 162.144 24.2044 162.144 20.7421C162.144 17.7314 162.915 15.2287 164.458 13.2342C166.302 10.8256 168.804 9.62134 171.965 9.62134C174.937 9.62134 177.251 10.6374 178.907 12.6697C179.434 11.0138 180.77 10.1858 182.914 10.1858H183.197C183.61 10.1858 183.817 10.4116 183.817 10.8632V30.7902C183.817 31.2042 183.61 31.4112 183.197 31.4112H179.02C178.644 31.4112 178.456 31.2042 178.456 30.7902V28.758ZM173.037 26.8387C174.73 26.8387 176.047 26.3118 176.988 25.2581C177.966 24.1667 178.456 22.6614 178.456 20.7421C178.456 18.8604 177.985 17.4115 177.045 16.3954C176.141 15.3416 174.824 14.8148 173.094 14.8148C171.438 14.8148 170.121 15.3605 169.143 16.4518C168.164 17.5056 167.675 18.9356 167.675 20.7421C167.675 22.5861 168.164 24.0726 169.143 25.2016C170.121 26.293 171.419 26.8387 173.037 26.8387Z" fill="#ffffff"/>
<path d="M143.972 22.7177C144.16 24.1854 144.799 25.3333 145.891 26.1612C147.019 26.9515 148.468 27.3466 150.237 27.3466C152.419 27.3466 154.545 26.7821 156.614 25.6531C157.028 25.4273 157.329 25.3144 157.517 25.3144C157.931 25.3144 158.138 25.5779 158.138 26.1047C158.138 27.4219 157.555 28.6262 156.389 29.7176C154.808 31.2229 152.532 31.9756 149.559 31.9756C146.587 31.9756 144.122 31.1476 142.165 29.4918C139.757 27.4219 138.553 24.5053 138.553 20.742C138.553 17.7313 139.362 15.2286 140.98 13.2341C142.899 10.9008 145.552 9.73413 148.938 9.73413C151.873 9.73413 154.206 10.5997 155.937 12.3308C157.668 14.0996 158.533 16.4517 158.533 19.3871C158.533 20.328 158.496 21.1936 158.421 21.9839C158.345 22.4731 158.025 22.7177 157.461 22.7177H143.972ZM143.972 18.8226H153.115C153.266 17.5055 152.946 16.4329 152.156 15.605C151.403 14.7394 150.331 14.3066 148.938 14.3066C146.079 14.3066 144.423 15.812 143.972 18.8226Z" fill="#ffffff"/>
<path d="M124.77 26.7892H133.123C135.306 26.7892 136.397 27.843 136.397 29.9504V31.1359C136.397 31.6628 136.152 31.9262 135.663 31.9262H119.86C119.446 31.9262 119.239 31.7192 119.239 31.3053V1.2172C119.239 0.765598 119.446 0.539795 119.86 0.539795H120.368C123.303 0.539795 124.77 2.19567 124.77 5.50743V26.7892Z" fill="#ffffff"/>
<path d="M104.754 27.0715H113.898C114.274 27.0715 114.462 27.2973 114.462 27.7489V31.3053C114.462 31.7193 114.274 31.9263 113.898 31.9263H98.4893C98.0754 31.9263 97.8684 31.7193 97.8684 31.3053V28.878C97.8684 28.2758 98.113 27.6549 98.6021 27.0151L107.858 15.5557H98.8843C98.4704 15.5557 98.2635 15.3487 98.2635 14.9347V11.3783C98.2635 10.9267 98.4704 10.7009 98.8843 10.7009H110.963C112.204 10.7009 113.07 10.9832 113.559 11.5477C114.048 12.0746 114.293 13.0154 114.293 14.3702C114.293 15.1229 114.048 15.8003 113.559 16.4024L104.754 27.0715Z" fill="#ffffff"/>
<path d="M85.0767 27.0715H94.2202C94.5965 27.0715 94.7846 27.2973 94.7846 27.7489V31.3053C94.7846 31.7193 94.5965 31.9263 94.2202 31.9263H78.8118C78.3979 31.9263 78.1909 31.7193 78.1909 31.3053V28.878C78.1909 28.2758 78.4355 27.6549 78.9247 27.0151L88.181 15.5557H79.2069C78.793 15.5557 78.586 15.3487 78.586 14.9347V11.3783C78.586 10.9267 78.793 10.7009 79.2069 10.7009H91.2853C92.527 10.7009 93.3924 10.9832 93.8816 11.5477C94.3707 12.0746 94.6153 13.0154 94.6153 14.3702C94.6153 15.1229 94.3707 15.8003 93.8816 16.4024L85.0767 27.0715Z" fill="#ffffff"/>
<path d="M69.1348 31.9262C68.7585 31.9262 68.5704 31.7192 68.5704 31.3053V11.3783C68.5704 10.9267 68.7585 10.7009 69.1348 10.7009H69.417C72.4272 10.7009 73.9323 12.3003 73.9323 15.4992V31.3053C73.9323 31.7192 73.7253 31.9262 73.3114 31.9262H69.1348ZM68.1753 5.16874C68.1753 4.26553 68.4575 3.53168 69.0219 2.96717C69.6239 2.36503 70.3577 2.06396 71.2231 2.06396C72.0885 2.06396 72.8035 2.36503 73.3679 2.96717C73.9699 3.56931 74.2709 4.30316 74.2709 5.16874C74.2709 6.03431 73.9699 6.76816 73.3679 7.3703C72.8035 7.97244 72.0885 8.27351 71.2231 8.27351C70.3577 8.27351 69.6239 7.97244 69.0219 7.3703C68.4575 6.76816 68.1753 6.03431 68.1753 5.16874Z" fill="#ffffff"/>
<path d="M47.2737 27.0715H53.4822C55.3259 27.0715 56.6617 26.714 57.4895 25.9989C58.3173 25.2839 58.7312 24.1172 58.7312 22.499C58.7312 21.0689 58.2609 19.9399 57.3202 19.112C56.4171 18.284 55.1566 17.8701 53.5386 17.8701H47.2737V27.0715ZM47.2737 13.1847H53.6515C56.3607 13.1847 57.7153 11.8487 57.7153 9.1767C57.7153 6.69289 56.2666 5.45098 53.3693 5.45098H47.2737V13.1847ZM58.3926 15.6121C60.1987 16.0637 61.6473 16.9669 62.7385 18.3217C63.8674 19.6765 64.4318 21.2571 64.4318 23.0635C64.4318 25.6979 63.6792 27.7677 62.1741 29.273C60.4056 31.0418 57.7153 31.9262 54.103 31.9262H42.3633C41.9494 31.9262 41.7424 31.7192 41.7424 31.3053V1.2172C41.7424 0.765598 41.9494 0.539795 42.3633 0.539795H53.1435C56.1537 0.539795 58.5243 1.16075 60.2551 2.40266C62.2494 3.83274 63.2465 5.9214 63.2465 8.66865C63.2465 11.9428 61.6285 14.2572 58.3926 15.6121Z" fill="#ffffff"/>
<defs>
<clipPath id="clip0_19_120">
<rect width="38.135" height="31.9509" fill="#ffffff" transform="translate(0 0.0246582)"/>
</clipPath>
</defs>
</svg>