<svg width="619" height="96" viewBox="0 0 619 96" fill="none" xmlns="http://www.w3.org/2000/svg">
<g clip-path="url(#clip0_19_38)">
<path d="M86.7761 37.2483C86.5467 35.9871 85.407 31.947 85.407 31.947C87.7039 28.489 90.0356 25.0483 92.1831 21.4968C93.719 18.957 94.8935 16.2267 95.321 13.233C95.7692 10.0695 94.1638 8.43407 90.9703 8.88451C87.7178 9.34535 84.6355 10.3779 81.7027 11.8262C80.3405 12.4984 79.0548 13.3265 77.7065 14.0334C77.2582 14.269 77.2235 14.5219 77.3104 14.9758C79.1903 24.5632 81.0529 34.1507 82.9189 43.7381C83.9753 49.1711 85.0351 54.6006 86.0985 60.0301C86.1471 60.2796 86.2131 60.5221 86.2479 60.6746C87.9332 60.6746 89.5699 60.7473 91.1997 60.6607C95.2827 60.4424 99.3241 59.9158 103.23 58.6476C104.686 58.1729 106.086 57.5665 107.17 56.4058C107.914 55.6089 108.084 54.76 107.66 53.7655C107.014 52.241 105.965 51.0456 104.675 50.0304C101.628 47.6396 98.2434 45.817 94.7893 44.1054C94.1812 43.8039 93.58 43.4851 92.9789 43.1733L94.5704 38.9738C94.5704 38.9738 96.4017 39.9059 97.7187 40.5815C101.687 42.6085 105.551 44.7949 108.793 47.9133C110.409 49.4656 111.702 51.2223 112.136 53.4883C112.571 55.7475 111.949 57.7121 110.36 59.3163C108.335 61.3641 105.739 62.4625 103.028 63.2421C98.1808 64.6384 93.2012 65.1443 88.173 65.2656C87.8672 65.2725 87.558 65.2656 87.1305 65.2656C87.4155 66.752 87.683 68.1519 87.9541 69.5517C88.729 73.5121 89.5109 77.4759 90.2858 81.4363C90.8522 84.3295 89.3302 86.4674 86.4112 87.0322C75.5416 89.125 64.6755 91.242 53.8094 93.3522C51.085 93.8823 48.3641 94.4193 45.6398 94.9391C43.044 95.4346 40.8027 93.9239 40.2953 91.3321C37.7447 78.2832 35.2011 65.2309 32.6505 52.1786C32.6366 52.1024 32.6053 52.0261 32.4941 51.6589V51.6797C30.3292 54.4966 28.2373 57.0918 26.2879 59.7875C23.3689 63.8207 20.5751 67.9405 18.5805 72.528C17.7569 74.4233 17.0446 76.3533 16.9507 78.4565C16.8361 81.0344 18.1843 82.2644 20.7697 82.0323C24.2168 81.7239 27.3651 80.4765 30.4578 79.0525C31.7922 78.4392 33.1022 77.7808 34.5339 77.0913C34.7528 78.609 34.9683 80.0954 35.1907 81.6408C31.4273 83.7232 27.5423 85.4418 23.2369 86.0273C21.5515 86.256 19.8662 86.4605 18.1704 86.0689C14.6364 85.2512 12.7148 82.8673 12.614 79.25C12.5376 76.5647 13.2117 74.0491 14.1986 71.5925C16.3878 66.1526 19.4492 61.2186 23.018 56.5825C23.4628 56.0039 23.9145 55.4252 24.4357 54.7496C24.1369 54.5625 23.9041 54.3754 23.6435 54.261C20.2276 52.7538 16.8256 51.2154 13.375 49.7843C12.3847 49.372 12.1692 49.1988 10.7202 49.2196C8.51359 48.8107 9.04525 48.6132 7.27304 46.7837C6.91512 45.429 7.04369 45.9487 4.43749 43.8663C2.80079 42.1996 1.2058 40.5365 0.420463 38.2704C-0.514295 35.5643 0.0972939 33.2013 2.23438 31.3683C3.39848 30.3704 4.76413 29.5493 6.14716 28.8736C9.62904 27.1758 13.4202 26.5937 17.2253 26.1502C19.0253 25.9388 20.8392 25.8695 22.6427 25.6859C22.9832 25.6512 23.2821 25.627 23.2821 25.627L23.5288 26.5452L24.4253 29.9477L23.1222 30.1071C19.5813 30.5125 16.0194 30.8174 12.5132 31.4376C10.5673 31.7807 8.61436 32.4736 6.84562 33.3641C4.05872 34.7674 3.80505 36.5137 5.75796 38.953C6.2653 39.5906 6.88384 40.1415 7.46068 40.7236C8.17304 41.4443 9.01745 41.7665 10.0599 41.7319C12.3986 41.4374 13.7677 42.2308 14.4696 43.5025C15.3557 44.8295 14.8797 45.5572 16.0611 46.063C19.4145 47.4975 22.7747 48.9181 26.128 50.3491C26.962 50.706 27.6396 50.5847 28.2304 49.8502C29.2207 48.6236 30.2667 47.4455 31.2466 46.2086C31.396 46.0215 31.3613 45.6265 31.3092 45.3493C30.3362 40.2766 29.3493 35.204 28.3589 30.1348C27.3199 24.8162 26.2705 19.4975 25.2419 14.1754C24.7693 11.7396 26.3991 9.52552 29.0122 9.01964C34.2629 8.00096 39.517 6.98921 44.7711 5.96706C53.1908 4.33162 61.6106 2.69618 70.0304 1.05381C72.4038 0.589511 74.7076 2.0517 75.2393 4.42517C75.6146 6.09872 75.9169 7.78614 76.2679 9.53938C77.6023 8.92609 78.881 8.33359 80.1598 7.74802C83.9232 6.02596 87.8186 4.83749 91.9954 4.67118C95.1924 4.54298 97.8021 5.82499 98.9905 8.35092C99.9704 10.4333 99.9287 12.6266 99.4388 14.8199C98.4797 19.1164 96.6727 23.0803 94.282 26.7357M81.5672 61.8804C78.6934 47.151 75.8439 32.5325 72.9771 17.824C72.6713 17.9938 72.4489 18.0977 72.2509 18.2363C68.5674 20.8211 64.9083 23.4337 61.1971 25.9804C59.9565 26.8328 59.4978 27.8411 59.6785 29.3483C59.9114 31.2852 59.2685 33.035 57.9133 34.4729C55.8318 36.68 53.3229 37.3661 50.4074 36.4895C49.6672 36.2677 49.014 36.1672 48.3815 36.7979C44.6529 40.5088 40.9035 44.2058 37.154 47.896C36.7544 48.291 36.6467 48.6686 36.7579 49.2438C38.5162 58.1625 40.2432 67.0847 41.9807 76.0068C42.3178 77.7393 42.6653 79.4683 43.0127 81.2146C56.6658 78.5674 70.2145 75.941 83.7946 73.3111C83.3359 70.9688 82.9015 68.734 82.4637 66.4991C82.2309 66.4748 82.0641 66.4471 81.8973 66.4367C78.7038 66.2704 75.5069 66.1387 72.3134 65.9239C71.0902 65.8408 70.2076 66.3224 69.3667 67.1228C66.4859 69.8635 62.1423 69.2329 60.2067 65.7611C59.6368 64.7389 58.8689 64.2469 57.7465 64.0806C55.87 63.8068 53.9935 63.5054 52.1379 63.1243C48.458 62.3724 44.7884 61.5581 41.0876 60.7612C40.8618 59.1604 40.6359 57.5665 40.4031 55.9172C40.8374 56.0524 41.1293 56.1667 41.4282 56.2291C47.1062 57.4176 52.7912 58.5922 58.4658 59.7945C59.5083 60.0162 60.2971 59.8187 61.0164 58.9594C62.3091 57.4141 64.0396 56.8493 66.0377 57.078C68.0636 57.3101 69.6586 58.2214 70.5586 60.0855C71.0659 61.1354 71.7887 61.5581 72.9528 61.572C74.7076 61.5928 76.4555 61.7937 78.2104 61.87C79.305 61.9185 80.4065 61.8804 81.5637 61.8804H81.5672ZM35.5451 42.9689C35.8092 42.7194 35.9517 42.5877 36.0942 42.4526C39.0374 39.594 41.9564 36.7147 44.9344 33.8943C45.678 33.1909 45.9213 32.5568 45.6606 31.5243C44.9726 28.7939 45.5703 26.3303 47.7456 24.4454C50.0113 22.4808 52.6244 21.975 55.4113 23.205C56.4121 23.645 57.1071 23.4822 57.9619 22.8793C62.1457 19.9307 66.3643 17.0201 70.6003 14.1443C72.1258 13.1082 72.164 13.1671 71.7053 11.3896C71.6914 11.3411 71.6393 11.303 71.5698 11.2095C58.0279 13.8359 44.4618 16.4657 30.8887 19.0956C32.4489 27.103 33.9849 34.9649 35.5451 42.9689ZM64.6373 87.6974C66.1906 87.7078 67.511 86.3669 67.5249 84.7661C67.5354 83.1237 66.1732 81.7447 64.5261 81.7378C62.8894 81.7274 61.4855 83.0926 61.4577 84.7211C61.4299 86.2907 62.9241 87.687 64.6373 87.6974ZM14.7337 45.3666C14.7337 47.494 13.0032 49.2196 10.8696 49.2196C8.73598 49.2196 7.00547 47.494 7.00547 45.3666C7.00547 43.2391 8.73598 41.5136 10.8696 41.5136C13.0032 41.5136 14.7337 43.2391 14.7337 45.3666Z" fill="#0E2F43"/>
<path d="M104.547 68.734C104.543 67.2788 105.666 66.2324 107.25 66.215C108.72 66.1977 109.766 67.3169 109.773 68.9107C109.78 70.2655 108.557 71.4089 107.104 71.4124C105.638 71.4124 104.554 70.2794 104.547 68.734Z" fill="#163146"/>
<path d="M96.853 70.6433C96.8357 69.531 97.6801 68.7375 98.8859 68.7375C99.9944 68.7375 100.787 69.4998 100.794 70.5705C100.801 71.5649 99.9318 72.4346 98.8963 72.4727C97.8365 72.5143 96.8669 71.6411 96.853 70.6398V70.6433Z" fill="#173246"/>
<path d="M20.4116 15.229C20.4255 16.2165 19.5116 17.1069 18.49 17.1C17.4753 17.0931 16.6934 16.3343 16.6899 15.3468C16.6899 14.283 17.5656 13.3683 18.5977 13.3614C19.5568 13.3544 20.3977 14.2207 20.4116 15.229Z" fill="#173247"/>
<path d="M65.1306 87.611C63.4175 87.6006 61.9233 86.2008 61.9511 84.6347C61.9789 83.0062 63.3827 81.6445 65.0194 81.6514C66.6666 81.6618 68.0322 83.0374 68.0183 84.6797C68.0079 86.2771 66.6839 87.6214 65.1306 87.611Z" fill="#FBFBFB"/>
</g>
<path d="M602.301 38.0284V2.96161C602.301 1.63206 602.91 0.967285 604.129 0.967285H604.959C613.822 0.967285 618.253 5.6207 618.253 14.9275V91.5427C618.253 92.7614 617.699 93.3708 616.591 93.3708H604.129C602.91 93.3708 602.301 92.7614 602.301 91.5427V85.5597C597.648 91.7643 591.168 94.8666 582.859 94.8666C574.44 94.8666 567.683 91.9859 562.587 86.2245C557.048 80.1307 554.279 72.0427 554.279 61.9603C554.279 53.0966 556.55 45.7287 561.092 39.8565C566.52 32.7656 574.108 29.2202 583.856 29.2202C592.165 29.2202 598.313 32.1562 602.301 38.0284ZM586.515 79.9091C591.5 79.9091 595.377 78.358 598.147 75.2557C600.916 72.0427 602.301 67.6108 602.301 61.9603C602.301 56.4205 600.916 52.1549 598.147 49.1634C595.488 46.0611 591.666 44.51 586.681 44.51C581.696 44.51 577.764 46.0611 574.883 49.1634C572.003 52.2657 570.563 56.5313 570.563 61.9603C570.563 67.3892 572.003 71.7657 574.883 75.0895C577.764 78.3026 581.641 79.9091 586.515 79.9091Z" fill="#0E2F43"/>
<path d="M525.384 85.5598C520.731 91.7643 514.251 94.8666 505.943 94.8666C497.524 94.8666 490.766 92.0413 485.67 86.3907C480.132 80.297 477.362 72.1535 477.362 61.9603C477.362 53.0967 479.633 45.7288 484.175 39.8566C489.603 32.7657 496.97 29.2202 506.275 29.2202C515.026 29.2202 521.839 32.2117 526.713 38.1947C528.264 33.3196 532.197 30.8821 538.511 30.8821H539.342C540.561 30.8821 541.17 31.5469 541.17 32.8765V91.5427C541.17 92.7615 540.561 93.3709 539.342 93.3709H527.046C525.938 93.3709 525.384 92.7615 525.384 91.5427V85.5598ZM509.432 79.9092C514.417 79.9092 518.294 78.358 521.064 75.2558C523.944 72.0427 525.384 67.6109 525.384 61.9603C525.384 56.4205 523.999 52.1549 521.23 49.1634C518.571 46.0611 514.694 44.51 509.598 44.51C504.724 44.51 500.847 46.1165 497.967 49.3296C495.086 52.4319 493.646 56.6421 493.646 61.9603C493.646 67.3893 495.086 71.7657 497.967 75.0896C500.847 78.3027 504.669 79.9092 509.432 79.9092Z" fill="#0E2F43"/>
<path d="M423.862 67.777C424.416 72.098 426.299 75.4773 429.512 77.9148C432.835 80.2415 437.1 81.4048 442.306 81.4048C448.731 81.4048 454.99 79.7429 461.083 76.419C462.302 75.7542 463.188 75.4219 463.742 75.4219C464.96 75.4219 465.57 76.1974 465.57 77.7486C465.57 81.6264 463.853 85.1719 460.418 88.3849C455.766 92.8168 449.064 95.0327 440.312 95.0327C431.561 95.0327 424.305 92.5952 418.545 87.7202C411.455 81.6264 407.91 73.0397 407.91 61.9602C407.91 53.0965 410.292 45.7286 415.055 39.8565C420.705 32.9872 428.515 29.5525 438.485 29.5525C447.125 29.5525 453.993 32.1008 459.089 37.1974C464.185 42.4048 466.733 49.3295 466.733 57.9716C466.733 60.7414 466.622 63.2897 466.4 65.6164C466.179 67.0568 465.237 67.777 463.576 67.777H423.862ZM423.862 56.3096H450.781C451.224 52.4318 450.282 49.2741 447.956 46.8366C445.74 44.2883 442.583 43.0141 438.485 43.0141C430.065 43.0141 425.191 47.446 423.862 56.3096Z" fill="#0E2F43"/>
<path d="M367.33 79.7638H391.923C398.348 79.7638 401.56 82.8661 401.56 89.0706V92.5607C401.56 94.1118 400.84 94.8874 399.4 94.8874H352.874C351.655 94.8874 351.046 94.278 351.046 93.0593V4.47821C351.046 3.14866 351.655 2.48389 352.874 2.48389H354.369C363.01 2.48389 367.33 7.35889 367.33 17.1089V79.7638Z" fill="#0E2F43"/>
<path d="M308.402 80.5948H335.321C336.429 80.5948 336.983 81.2595 336.983 82.5891V93.0593C336.983 94.278 336.429 94.8874 335.321 94.8874H289.958C288.739 94.8874 288.13 94.278 288.13 93.0593V85.913C288.13 84.1402 288.85 82.3121 290.29 80.4286L317.541 46.6913H291.121C289.902 46.6913 289.293 46.0819 289.293 44.8632V34.393C289.293 33.0635 289.902 32.3987 291.121 32.3987H326.68C330.336 32.3987 332.884 33.2296 334.324 34.8916C335.764 36.4427 336.484 39.2126 336.484 43.2013C336.484 45.4172 335.764 47.4115 334.324 49.1842L308.402 80.5948Z" fill="#0E2F43"/>
<path d="M250.471 80.5948H277.39C278.498 80.5948 279.052 81.2595 279.052 82.5891V93.0593C279.052 94.278 278.498 94.8874 277.39 94.8874H232.027C230.808 94.8874 230.199 94.278 230.199 93.0593V85.913C230.199 84.1402 230.919 82.3121 232.359 80.4286L259.61 46.6913H233.19C231.971 46.6913 231.362 46.0819 231.362 44.8632V34.393C231.362 33.0635 231.971 32.3987 233.19 32.3987H268.75C272.405 32.3987 274.953 33.2296 276.393 34.8916C277.833 36.4427 278.553 39.2126 278.553 43.2013C278.553 45.4172 277.833 47.4115 276.393 49.1842L250.471 80.5948Z" fill="#0E2F43"/>
<path d="M203.537 94.8872C202.429 94.8872 201.876 94.2779 201.876 93.0591V34.3929C201.876 33.0633 202.429 32.3985 203.537 32.3985H204.368C213.23 32.3985 217.661 37.1074 217.661 46.525V93.0591C217.661 94.2779 217.052 94.8872 215.834 94.8872H203.537ZM200.712 16.1116C200.712 13.4525 201.543 11.292 203.205 9.63004C204.977 7.85731 207.137 6.97095 209.685 6.97095C212.233 6.97095 214.338 7.85731 216 9.63004C217.772 11.4028 218.658 13.5633 218.658 16.1116C218.658 18.6599 217.772 20.8204 216 22.5931C214.338 24.3659 212.233 25.2522 209.685 25.2522C207.137 25.2522 204.977 24.3659 203.205 22.5931C201.543 20.8204 200.712 18.6599 200.712 16.1116Z" fill="#0E2F43"/>
<path d="M139.176 80.5948H157.455C162.883 80.5948 166.815 79.5422 169.252 77.4371C171.69 75.332 172.908 71.8973 172.908 67.1331C172.908 62.9229 171.523 59.599 168.754 57.1615C166.095 54.724 162.384 53.5053 157.621 53.5053H139.176V80.5948ZM139.176 39.7112H157.953C165.929 39.7112 169.917 35.778 169.917 27.9115C169.917 20.599 165.652 16.9427 157.122 16.9427H139.176V39.7112ZM171.911 46.8575C177.228 48.1871 181.493 50.8462 184.706 54.8348C188.029 58.8234 189.691 63.4769 189.691 68.7951C189.691 76.5507 187.475 82.6445 183.044 87.0763C177.838 92.2837 169.917 94.8874 159.282 94.8874H124.72C123.501 94.8874 122.892 94.278 122.892 93.0593V4.47821C122.892 3.14866 123.501 2.48389 124.72 2.48389H156.458C165.32 2.48389 172.299 4.31202 177.395 7.96828C183.266 12.1785 186.201 18.3277 186.201 26.4157C186.201 36.055 181.438 42.8689 171.911 46.8575Z" fill="#0E2F43"/>
<defs>
<clipPath id="clip0_19_38">
<rect width="112.272" height="94.0655" fill="white" transform="translate(0 0.967285)"/>
</clipPath>
</defs>
</svg>
